<svg width="664" height="687" viewBox="0 0 664 687" fill="none" xmlns="http://www.w3.org/2000/svg">
<path d="M591.056 647.646C537.081 678.11 457.676 686.818 329.587 686.818C201.499 686.818 122.098 678.11 68.1311 647.646C35.7257 629.401 12.7252 604.52 12.7252 586.684C12.7252 576.534 11.5322 570.727 23.5597 570.727H635.602C647.639 570.727 646.448 576.532 646.448 586.684C646.456 604.52 623.444 629.398 591.056 647.646ZM635.605 201.384C635.605 201.384 35.5977 201.384 23.561 201.384C11.5242 201.384 6.13147 195.168 6.13147 183.979C6.13147 117.634 105.989 0.513428 329.587 0.513428C551.119 0.513428 653.05 117.634 653.05 183.979C653.05 195.168 647.65 201.384 635.605 201.384Z" fill="white"/>
<path d="M18.1903 343.709C11.9415 343.709 8.81718 340.808 8.81718 335.005C8.81718 333.108 9.31931 330.375 10.3236 326.804C11.4394 323.122 12.1647 318.268 12.4995 312.242C12.8342 306.217 13.0016 297.178 13.0016 285.127C13.0016 273.411 12.7784 264.428 12.3321 258.18C11.9973 251.819 11.3278 246.91 10.3236 243.451C9.31931 239.88 8.81718 237.146 8.81718 235.249C8.81718 229.447 11.9415 226.546 18.1903 226.546H52.5024C54.8457 226.546 56.7426 227.382 58.1932 229.056C59.7554 230.73 60.5365 232.85 60.5365 235.417C60.5365 236.532 60.2575 237.927 59.6996 239.601C59.2532 241.275 58.9185 242.614 58.6953 243.618C57.9142 246.854 57.3563 249.699 57.0216 252.154C56.6868 254.609 56.5194 257.678 56.5194 261.36C56.5194 266.27 58.8627 268.724 63.5492 268.724C68.2358 268.724 70.579 266.27 70.579 261.36C70.579 257.678 70.4117 254.609 70.0769 252.154C69.7422 249.699 69.1842 246.854 68.4031 243.618C68.18 242.614 67.7894 241.275 67.2315 239.601C66.7852 237.927 66.562 236.532 66.562 235.417C66.562 232.85 67.2873 230.73 68.7379 229.056C70.3001 227.382 72.2528 226.546 74.5961 226.546H108.908C115.157 226.546 118.281 229.447 118.281 235.249C118.281 237.146 117.779 239.88 116.775 243.451C115.771 246.91 115.045 251.819 114.599 258.18C114.264 264.428 114.097 273.411 114.097 285.127C114.097 297.178 114.264 306.217 114.599 312.242C114.934 318.268 115.659 323.122 116.775 326.804C117.779 330.375 118.281 333.108 118.281 335.005C118.281 340.808 115.157 343.709 108.908 343.709H74.5961C72.2528 343.709 70.3001 342.872 68.7379 341.198C67.2873 339.525 66.562 337.404 66.562 334.838C66.562 333.499 66.841 331.993 67.3989 330.319L68.4031 326.804C69.8537 320.555 70.579 312.856 70.579 303.706C70.579 301.251 69.9653 299.298 68.7379 297.848C67.5105 296.286 65.7809 295.505 63.5492 295.505C61.3175 295.505 59.588 296.286 58.3606 297.848C57.1331 299.298 56.5194 301.251 56.5194 303.706C56.5194 312.521 57.2447 320.221 58.6953 326.804L59.6996 330.319C60.2575 331.993 60.5365 333.499 60.5365 334.838C60.5365 337.404 59.7554 339.525 58.1932 341.198C56.7426 342.872 54.8457 343.709 52.5024 343.709H18.1903ZM174.779 346.052C165.74 346.052 157.371 344.155 149.672 340.361C141.973 336.568 135.836 331.044 131.261 323.791C126.686 316.538 124.398 307.835 124.398 297.681C124.398 288.084 125.403 275.252 127.411 259.184C127.634 256.952 127.746 255.279 127.746 254.163C127.746 250.257 127.132 246.798 125.905 243.785C124.789 240.996 124.231 238.262 124.231 235.584C124.231 233.017 125.068 230.897 126.742 229.224C128.415 227.438 130.647 226.546 133.437 226.546H167.247C170.259 226.546 172.547 227.382 174.109 229.056C175.783 230.73 176.62 233.073 176.62 236.086C176.62 237.871 176.229 240.828 175.448 244.957C174.444 250.201 173.774 254.776 173.44 258.682C171.989 274.08 171.264 284.793 171.264 290.818C171.264 299.968 174.277 304.543 180.302 304.543C182.98 304.543 185.044 303.483 186.495 301.363C188.057 299.131 188.838 295.895 188.838 291.655C188.838 282.505 188.225 271.681 186.997 259.184C186.551 254.944 185.602 249.922 184.152 244.12C183.036 240.438 182.478 237.481 182.478 235.249C182.478 232.683 183.315 230.618 184.989 229.056C186.662 227.382 189.117 226.546 192.353 226.546H211.267C214.391 226.546 216.79 227.327 218.464 228.889C220.249 230.451 221.142 232.627 221.142 235.417C221.142 236.979 220.807 239.322 220.138 242.446C219.357 246.352 218.966 249.532 218.966 251.987C218.966 254.442 219.078 256.394 219.301 257.845C220.417 266.772 221.253 274.75 221.811 281.78C222.369 288.698 222.648 295.951 222.648 303.539C222.648 312.8 220.584 320.611 216.455 326.971C212.327 333.332 206.636 338.13 199.383 341.366C192.242 344.49 184.04 346.052 174.779 346.052ZM311.179 344.546C307.05 344.546 303.479 343.709 300.466 342.035C297.454 340.25 294.608 337.628 291.93 334.169C286.016 326.581 278.429 315.534 269.167 301.028C268.386 299.912 267.549 299.354 266.656 299.354C266.099 299.354 265.652 299.633 265.317 300.191C264.983 300.637 264.815 301.251 264.815 302.032C264.815 306.942 265.262 311.238 266.154 314.92C267.159 318.603 268.498 322.285 270.171 325.967C271.734 329.649 272.515 332.327 272.515 334.001C272.515 336.902 271.678 339.246 270.004 341.031C268.33 342.816 265.987 343.709 262.974 343.709H238.035C231.786 343.709 228.662 340.808 228.662 335.005C228.662 333.108 229.164 330.375 230.168 326.804C231.284 323.122 232.01 318.268 232.344 312.242C232.679 306.217 232.846 297.178 232.846 285.127C232.846 273.411 232.623 264.428 232.177 258.18C231.842 251.819 231.173 246.91 230.168 243.451C229.164 239.88 228.662 237.146 228.662 235.249C228.662 232.571 229.499 230.451 231.173 228.889C232.958 227.327 235.524 226.546 238.872 226.546H252.764C257.339 226.546 260.798 227.271 263.142 228.721C265.596 230.172 268.274 232.683 271.176 236.253C278.205 245.18 285.124 254.609 291.93 264.54C292.488 265.544 293.325 266.046 294.441 266.046C295.11 266.046 295.668 265.823 296.115 265.377C296.561 264.819 296.784 264.149 296.784 263.368C296.784 257.231 296.17 252.489 294.943 249.141C294.385 247.468 293.716 246.017 292.935 244.79C292.153 243.562 291.651 242.837 291.428 242.614C290.424 241.052 289.699 239.768 289.252 238.764C288.806 237.76 288.583 236.644 288.583 235.417C288.583 232.85 289.364 230.73 290.926 229.056C292.6 227.382 295.11 226.546 298.458 226.546H322.728C326.075 226.546 328.586 227.382 330.259 229.056C332.045 230.618 332.937 232.738 332.937 235.417C332.937 237.09 332.324 239.768 331.096 243.451C330.427 245.571 329.925 248.137 329.59 251.15C329.367 254.051 329.144 258.068 328.92 263.201C328.474 277.261 328.251 288.028 328.251 295.505C328.251 302.758 328.474 313.525 328.92 327.808C329.144 333.053 327.916 337.181 325.238 340.194C322.56 343.095 318.487 344.546 313.02 344.546H311.179ZM395.972 346.052C384.367 346.052 374.045 343.653 365.007 338.855C355.969 334.057 348.939 327.083 343.918 317.933C338.896 308.783 336.386 297.959 336.386 285.462C336.386 273.746 338.729 263.257 343.415 253.995C348.214 244.622 355.02 237.313 363.835 232.069C372.762 226.825 383.139 224.202 394.967 224.202C399.096 224.202 402.444 224.537 405.01 225.207C407.576 225.764 410.254 226.825 413.044 228.387C414.383 229.168 415.499 229.558 416.392 229.558C417.619 229.558 418.623 229.056 419.404 228.052C421.748 225.486 424.481 224.202 427.606 224.202C430.842 224.202 433.464 225.095 435.472 226.88C437.593 228.666 438.653 231.121 438.653 234.245C438.653 240.717 439.099 246.408 439.992 251.317C440.773 255.223 441.163 258.403 441.163 260.858C441.163 264.875 439.489 268.278 436.142 271.068C432.906 273.857 429.001 275.252 424.426 275.252C421.413 275.252 418.567 274.583 415.889 273.244C413.211 271.905 410.98 269.896 409.194 267.218C404.954 260.746 400.1 257.51 394.633 257.51C390.392 257.51 386.822 259.24 383.921 262.699C381.131 266.046 379.736 270.621 379.736 276.424C379.736 282.784 380.796 288.531 382.916 293.663C385.148 298.685 387.77 302.646 390.783 305.547C393.907 308.337 396.697 309.732 399.152 309.732C401.718 309.732 403.001 308.839 403.001 307.054C403.001 305.938 402.444 304.933 401.328 304.041C400.212 303.148 398.426 301.976 395.972 300.526C393.852 299.298 392.234 297.736 391.118 295.839C390.113 293.942 389.611 291.934 389.611 289.814C389.611 286.913 390.56 284.458 392.457 282.449C394.354 280.329 396.92 279.269 400.156 279.269H434.97C437.537 279.269 439.489 279.883 440.828 281.11C442.167 282.226 442.837 283.9 442.837 286.132C442.837 287.471 442.558 289.089 442 290.985C440.996 295.002 440.494 299.522 440.494 304.543C440.494 307.779 440.661 310.401 440.996 312.41C441.442 314.307 441.721 315.422 441.833 315.757C442.391 317.766 442.67 319.384 442.67 320.611C442.67 323.735 441.498 326.86 439.155 329.984C435.807 334.447 430.172 338.241 422.25 341.366C414.327 344.49 405.568 346.052 395.972 346.052ZM457.716 343.709C451.468 343.709 448.343 340.808 448.343 335.005C448.343 333.108 448.846 330.375 449.85 326.804C450.966 323.122 451.691 318.268 452.026 312.242C452.36 306.217 452.528 297.178 452.528 285.127C452.528 273.411 452.305 264.428 451.858 258.18C451.524 251.819 450.854 246.91 449.85 243.451C448.846 239.88 448.343 237.146 448.343 235.249C448.343 229.447 451.468 226.546 457.716 226.546H505.921C518.641 226.546 528.907 229.447 536.718 235.249C544.641 240.94 548.602 249.532 548.602 261.025C548.602 267.72 547.263 273.188 544.585 277.428C541.907 281.557 538.448 284.625 534.207 286.634C532.98 287.192 532.366 287.805 532.366 288.475C532.366 289.256 532.98 289.981 534.207 290.651C538.782 292.994 542.297 296.341 544.752 300.693C547.319 304.933 549.606 310.624 551.615 317.766C552.061 319.439 552.842 321.783 553.958 324.795C554.739 326.581 555.241 328.031 555.464 329.147C555.799 330.152 555.966 331.435 555.966 332.997C555.966 340.138 551.782 343.709 543.413 343.709H518.474C509.994 343.709 505.754 339.859 505.754 332.16C505.754 329.259 505.809 326.916 505.921 325.13L506.088 309.899C506.088 307.109 505.53 304.989 504.414 303.539C503.41 302.088 502.015 301.363 500.23 301.363C498.333 301.363 496.938 301.976 496.046 303.204C495.153 304.431 494.707 306.105 494.707 308.225C494.707 310.792 494.986 313.581 495.544 316.594C496.101 319.495 496.827 322.117 497.719 324.461C498.054 325.242 498.612 326.692 499.393 328.812C500.286 330.933 500.732 332.83 500.732 334.503C500.732 340.64 497.273 343.709 490.355 343.709H457.716ZM498.556 275.085C500.9 275.085 502.964 274.248 504.749 272.574C506.535 270.789 507.427 268.166 507.427 264.707C507.427 261.248 506.535 258.682 504.749 257.008C503.075 255.334 501.011 254.497 498.556 254.497C497.106 254.497 496.101 254.776 495.544 255.334C494.986 255.892 494.707 256.896 494.707 258.347V271.235C494.707 273.801 495.99 275.085 498.556 275.085ZM587.967 343.709C585.4 343.709 583.336 342.928 581.774 341.366C580.323 339.804 579.598 337.795 579.598 335.34C579.598 333.778 580.044 331.769 580.937 329.315C583.057 323.959 584.117 317.877 584.117 311.071V308.727C584.117 306.161 583.894 303.929 583.447 302.032C583.001 300.135 582.108 297.959 580.769 295.505C575.413 285.239 568.105 272.128 558.843 256.171C557.95 254.386 556.5 252.154 554.491 249.476C552.594 246.687 551.311 244.511 550.642 242.948C549.972 241.386 549.637 239.378 549.637 236.923C549.637 234.245 550.586 231.846 552.483 229.726C554.491 227.606 557.393 226.546 561.186 226.546H602.696C605.82 226.546 608.219 227.55 609.893 229.558C611.678 231.455 612.571 233.687 612.571 236.253C612.571 239.378 611.79 242.279 610.228 244.957C609.781 245.85 609.391 246.798 609.056 247.802C608.721 248.807 608.554 249.867 608.554 250.983C608.554 252.545 608.721 253.939 609.056 255.167C609.391 256.283 610.005 257.733 610.897 259.519C611.567 260.969 612.18 262.029 612.738 262.699C613.296 263.368 613.966 263.703 614.747 263.703C615.416 263.703 615.974 263.424 616.421 262.866C616.979 262.308 617.704 261.192 618.596 259.519C620.27 256.283 621.107 253.437 621.107 250.983C621.107 248.862 620.605 246.408 619.601 243.618C618.708 240.717 618.262 238.373 618.262 236.588C618.262 233.464 619.21 231.009 621.107 229.224C623.004 227.438 625.459 226.546 628.472 226.546H652.407C655.196 226.546 657.484 227.438 659.269 229.224C661.054 231.009 661.947 233.352 661.947 236.253C661.947 238.485 661.556 240.326 660.775 241.777C660.106 243.227 658.823 245.292 656.926 247.97C654.806 250.759 652.964 253.437 651.402 256.004C649.171 259.686 645.823 265.656 641.36 273.913L638.347 279.604C634.441 286.745 631.708 292.213 630.145 296.007C628.695 299.801 627.97 304.041 627.97 308.727V311.071C627.97 317.319 629.03 323.401 631.15 329.315C632.042 331.769 632.489 333.778 632.489 335.34C632.489 337.795 631.708 339.804 630.145 341.366C628.695 342.928 626.686 343.709 624.12 343.709H587.967Z" fill="white"/>
<path d="M71.7518 555.252C59.198 555.252 47.7519 552.852 37.4135 548.052C27.2597 543.068 19.1367 535.591 13.0444 525.622C7.13675 515.653 4.18292 503.376 4.18292 488.791C4.18292 479.745 6.02907 471.991 9.72135 465.53C13.5983 459.068 18.4905 454.268 24.3982 451.13C30.4905 447.807 36.7674 446.145 43.2289 446.145C52.4596 446.145 60.2134 448.914 66.4903 454.453C72.7672 459.991 75.9056 467.468 75.9056 476.884C75.9056 482.607 75.0749 487.407 73.4133 491.283C71.9364 494.976 69.9057 498.576 67.3211 502.083C65.6595 504.299 64.4595 506.145 63.7211 507.622C63.1672 508.914 62.8903 510.391 62.8903 512.053C62.8903 514.453 63.7211 516.483 65.3826 518.145C67.2287 519.806 69.3518 520.637 71.7518 520.637C79.8748 520.637 84.2133 512.514 84.7671 496.268C85.1363 486.668 85.321 472.822 85.321 454.73C85.321 438.299 85.1363 426.022 84.7671 417.899C84.5825 411.069 83.4748 405.253 81.4441 400.453C79.4133 395.653 76.6441 391.13 73.1364 386.884C70.7364 383.93 69.0749 381.346 68.1518 379.13C67.4134 376.915 67.0441 374.607 67.0441 372.207C67.0441 367.776 68.4287 364.269 71.198 361.684C73.9672 358.915 78.0287 357.53 83.3825 357.53H148.459C153.444 357.53 157.228 358.915 159.813 361.684C162.582 364.453 163.967 367.961 163.967 372.207C163.967 375.715 162.859 381.069 160.644 388.269C158.244 396.392 157.044 412.176 157.044 435.622C157.044 445.961 157.321 458.238 157.874 472.453C158.982 500.699 151.598 521.56 135.721 535.037C119.844 548.514 98.5209 555.252 71.7518 555.252ZM257.774 555.252C241.159 555.252 226.205 551.283 212.913 543.345C199.62 535.406 189.19 523.868 181.62 508.73C174.051 493.407 170.267 475.314 170.267 454.453C170.267 433.591 174.051 415.592 181.62 400.453C189.19 385.13 199.62 373.5 212.913 365.561C226.205 357.623 241.159 353.653 257.774 353.653C274.574 353.653 289.528 357.623 302.635 365.561C315.927 373.5 326.358 385.13 333.927 400.453C341.497 415.592 345.281 433.591 345.281 454.453C345.281 475.314 341.497 493.407 333.927 508.73C326.358 523.868 315.927 535.406 302.635 543.345C289.528 551.283 274.574 555.252 257.774 555.252ZM257.774 503.745C260.358 503.745 262.297 502.637 263.589 500.422C265.066 498.022 266.082 493.314 266.635 486.299C267.374 479.284 267.743 468.668 267.743 454.453C267.743 440.053 267.374 429.438 266.635 422.607C266.082 415.592 265.066 410.976 263.589 408.761C262.297 406.361 260.358 405.161 257.774 405.161C255.189 405.161 253.159 406.361 251.682 408.761C250.389 410.976 249.374 415.592 248.635 422.607C248.082 429.438 247.805 440.053 247.805 454.453C247.805 468.668 248.082 479.284 248.635 486.299C249.374 493.314 250.389 498.022 251.682 500.422C253.159 502.637 255.189 503.745 257.774 503.745ZM364.787 551.375C354.448 551.375 349.279 546.576 349.279 536.976C349.279 533.837 350.11 529.314 351.771 523.406C353.618 517.314 354.818 509.283 355.371 499.314C355.925 489.345 356.202 474.391 356.202 454.453C356.202 435.068 355.833 420.207 355.094 409.869C354.541 399.346 353.433 391.222 351.771 385.499C350.11 379.592 349.279 375.069 349.279 371.93C349.279 362.33 354.448 357.53 364.787 357.53H459.494C468.54 357.53 475.094 359.192 479.155 362.515C483.402 365.653 485.525 370.361 485.525 376.638C485.525 383.653 486.448 390.392 488.294 396.853C488.848 399.069 489.125 401.099 489.125 402.946C489.125 408.115 487.371 412.453 483.863 415.961C480.54 419.284 476.017 420.945 470.294 420.945C466.417 420.945 463.186 420.392 460.602 419.284C458.017 417.992 454.971 416.053 451.463 413.469C448.879 411.438 446.479 409.869 444.263 408.761C442.232 407.653 439.74 407.099 436.786 407.099C433.833 407.099 431.34 408.115 429.309 410.145C427.279 411.992 426.263 414.853 426.263 418.73C426.263 422.422 427.371 425.284 429.586 427.315C431.986 429.161 434.94 430.084 438.448 430.084C441.402 430.084 444.356 429.53 447.309 428.422C450.263 427.13 453.402 426.484 456.725 426.484C462.632 426.484 467.155 428.792 470.294 433.407C473.432 437.838 475.002 444.022 475.002 451.961C475.002 460.084 473.34 466.73 470.017 471.899C466.879 477.068 462.448 479.653 456.725 479.653C453.956 479.653 451.74 479.191 450.079 478.268C448.602 477.345 447.679 476.791 447.309 476.607C444.54 474.576 441.586 473.561 438.448 473.561C435.125 473.561 432.263 474.576 429.863 476.607C427.463 478.453 426.263 481.13 426.263 484.637C426.263 488.884 427.556 492.114 430.14 494.33C432.909 496.545 436.602 497.653 441.217 497.653C446.202 497.653 450.171 496.914 453.125 495.437C456.079 493.776 459.032 491.468 461.986 488.514C464.94 485.745 467.617 483.714 470.017 482.422C472.417 480.945 475.648 480.207 479.709 480.207C485.617 480.207 490.14 481.868 493.278 485.191C496.417 488.33 497.986 492.668 497.986 498.207C497.986 500.976 497.801 503.099 497.432 504.576C495.955 512.33 495.217 519.899 495.217 527.283C495.217 535.222 492.632 541.222 487.463 545.283C482.478 549.345 475.186 551.375 465.586 551.375H364.787ZM574.825 555.252C563.748 555.252 554.702 554.791 547.687 553.868C540.672 553.129 533.749 551.56 526.918 549.16C520.456 546.945 515.841 544.176 513.072 540.852C510.487 537.345 508.918 533.837 508.364 530.329C507.995 526.822 507.81 521.283 507.81 513.714C507.81 505.96 507.349 500.053 506.426 495.991C506.241 495.068 506.149 493.868 506.149 492.391C506.149 487.222 507.995 482.976 511.687 479.653C515.379 476.145 519.718 474.391 524.702 474.391C531.164 474.391 536.61 477.345 541.041 483.253C549.718 495.068 559.687 500.976 570.948 500.976C577.041 500.976 580.087 498.668 580.087 494.053C580.087 491.283 578.61 488.884 575.656 486.853C572.702 484.637 566.148 481.776 555.995 478.268C541.964 473.284 530.333 465.899 521.103 456.114C512.056 446.145 507.533 432.022 507.533 413.745C507.533 394.361 514.364 379.499 528.026 369.161C541.872 358.823 559.595 353.653 581.195 353.653C598.917 353.653 612.579 355.038 622.179 357.807C631.963 360.576 637.41 366.023 638.517 374.146C639.81 383.746 641.84 393.438 644.61 403.222C645.348 405.622 645.717 408.115 645.717 410.699C645.717 416.053 643.963 420.299 640.456 423.438C637.133 426.392 632.887 427.868 627.717 427.868C620.517 427.868 614.24 425.099 608.887 419.561C603.348 413.838 598.917 410.053 595.594 408.207C592.271 406.176 589.041 405.161 585.902 405.161C583.318 405.161 581.287 405.715 579.81 406.822C578.333 407.93 577.595 409.407 577.595 411.253C577.595 413.653 578.979 415.869 581.748 417.899C584.702 419.745 590.518 422.053 599.194 424.822C618.764 431.284 632.794 439.315 641.286 448.914C649.779 458.514 654.025 472.176 654.025 489.899C654.025 509.837 647.286 525.714 633.81 537.529C620.333 549.345 600.671 555.252 574.825 555.252Z" fill="white"/>
</svg>
