<svg width="502" height="520" viewBox="0 0 502 520" fill="none" xmlns="http://www.w3.org/2000/svg">
<path d="M443.499 483.786L443.494 483.789C404.541 505.774 346.311 512.5 249.07 512.5C151.83 512.5 93.6031 505.774 54.6568 483.789L54.6496 483.785C42.9302 477.186 33.1027 469.487 26.3104 462.051C19.2492 454.32 16.49 448.012 16.49 444.13C16.49 443.428 16.4826 442.721 16.476 442.092C16.4732 441.826 16.4706 441.574 16.4687 441.342C16.463 440.635 16.4635 440.056 16.4768 439.554C16.6889 439.545 16.9288 439.54 17.199 439.54H480.932C481.206 439.54 481.449 439.546 481.663 439.555C481.676 440.056 481.677 440.635 481.671 441.342C481.665 442.123 481.65 443.132 481.65 444.13V444.133C481.652 448.013 478.894 454.318 471.832 462.05C465.039 469.487 455.212 477.186 443.499 483.786ZM480.934 152.196C480.934 144.696 480.932 144.696 480.929 144.696H480.913H480.887H480.851H480.805H480.748H480.681H480.604H480.517H480.42H480.313H480.196H480.07H479.933H479.786H479.63H479.463H479.287H479.102H478.907H478.702H478.487H478.263H478.03H477.787H477.535H477.273H477.002H476.722H476.433H476.134H475.826H475.509H475.183H474.848H474.504H474.151H473.789H473.419H473.039H472.651H472.253H471.848H471.433H471.01H470.578H470.138H469.689H469.231H468.766H468.292H467.809H467.318H466.819H466.312H465.796H465.273H464.741H464.201H463.653H463.097H462.533H461.962H461.382H460.795H460.199H459.596H458.986H458.367H457.741H457.108H456.467H455.818H455.162H454.498H453.827H453.149H452.464H451.771H451.071H450.363H449.649H448.928H448.199H447.463H446.721H445.971H445.215H444.452H443.682H442.905H442.121H441.331H440.534H439.73H438.92H438.103H437.28H436.45H435.614H434.771H433.923H433.067H432.206H431.338H430.464H429.584H428.698H427.806H426.908H426.004H425.094H424.178H423.256H422.329H421.395H420.456H419.511H418.561H417.604H416.643H415.676H414.703H413.725H412.741H411.752H410.758H409.758H408.753H407.743H406.728H405.707H404.682H403.651H402.616H401.575H400.53H399.48H398.424H397.364H396.3H395.23H394.156H393.077H391.993H390.905H389.813H388.716H387.614H386.508H385.398H384.283H383.165H382.041H380.914H379.782H378.647H377.507H376.363H375.215H374.064H372.908H371.748H370.585H369.418H368.247H367.072H365.894H364.711H363.526H362.337H361.144H359.948H358.748H357.545H356.338H355.129H353.915H352.699H351.48H350.257H349.031H347.802H346.57H345.335H344.098H342.857H341.613H340.367H339.117H337.865H336.61H335.353H334.093H332.83H331.565H330.297H329.027H327.754H326.479H325.201H323.922H322.64H321.355H320.069H318.78H317.489H316.196H314.902H313.605H312.306H311.005H309.702H308.398H307.092H305.784H304.474H303.163H301.85H300.535H299.219H297.901H296.582H295.261H293.939H292.616H291.291H289.966H288.638H287.31H285.981H284.65H283.318H281.986H280.652H279.317H277.982H276.645H275.308H273.97H272.631H271.292H269.952H268.611H267.269H265.927H264.585H263.242H261.899H260.555H259.211H257.867H256.522H255.177H253.832H252.487H251.142H249.796H248.451H247.106H245.76H244.415H243.07H241.725H240.381H239.036H237.692H236.348H235.005H233.662H232.319H230.977H229.636H228.295H226.955H225.615H224.276H222.938H221.601H220.264H218.928H217.593H216.26H214.927H213.595H212.264H210.934H209.606H208.278H206.952H205.627H204.304H202.982H201.661H200.341H199.023H197.707H196.392H195.079H193.767H192.457H191.148H189.842H188.537H187.234H185.933H184.634H183.337H182.041H180.748H179.457H178.168H176.881H175.596H174.314H173.034H171.756H170.48H169.207H167.936H166.668H165.402H164.139H162.878H161.62H160.365H159.112H157.863H156.616H155.371H154.13H152.892H151.656H150.424H149.194H147.968H146.745H145.524H144.307H143.094H141.883H140.676H139.473H138.272H137.075H135.882H134.692H133.506H132.323H131.144H129.968H128.797H127.629H126.465H125.304H124.148H122.995H121.847H120.702H119.562H118.425H117.293H116.165H115.041H113.921H112.806H111.695H110.588H109.486H108.388H107.294H106.205H105.121H104.041H102.966H101.896H100.83H99.7691H98.713H97.6618H96.6154H95.5739H94.5374H93.506H92.4795H91.4582H90.4419H89.4309H88.425H87.4244H86.4291H85.4391H84.4545H83.4753H82.5015H81.5333H80.5705H79.6133H78.6618H77.7159H76.7756H75.8411H74.9124H73.9895H73.0724H72.1613H71.256H70.3568H69.4635H68.5763H67.6952H66.8202H65.9514H65.0888H64.2324H63.3824H62.5387H61.7013H60.8704H60.0459H59.2279H58.4165H57.6116H56.8134H56.0218H55.2369H54.4587H53.6873H52.9228H52.165H51.4142H50.6703H49.9334H49.2035H48.4807H47.765H47.0564H46.355H45.6608H44.9739H44.2942H43.6219H42.957H42.2995H41.6495H41.0069H40.3719H39.7445H39.1247H38.5126H37.9082H37.3115H36.7226H36.1415H35.5683H35.003H34.4456H33.8962H33.3548H32.8215H32.2963H31.7793H31.2704H30.7698H30.2774H29.7933H29.3176H28.8503H28.3913H27.9409H27.4989H27.0656H26.6407H26.2246H25.817H25.4182H25.0282H24.6469H24.2745H23.9109H23.5562H23.2105H22.8738H22.5461H22.2275H21.918H21.6176H21.3264H21.0445H20.7718H20.5084H20.2544H20.0098H19.7746H19.5489H19.3327H19.1261H18.929H18.7416H18.5638H18.3958H18.2375H18.089H17.9504H17.8216H17.7027H17.5938H17.4949H17.406H17.3272H17.2585H17.2C13.8589 144.696 12.8385 143.847 12.5708 143.57C12.2567 143.245 11.494 142.159 11.494 139.008C11.494 117.205 28.3608 84.4493 67.3433 56.7686C105.982 29.332 165.675 7.5 249.07 7.5C331.668 7.5 391.374 29.325 430.227 56.7787C469.449 84.4929 486.652 117.254 486.652 139.008C486.652 142.156 485.889 143.242 485.574 143.567C485.304 143.846 484.279 144.696 480.934 144.696V152.196Z" stroke="#FF6F00" stroke-width="15"/>
<path d="M13.1309 260.5C8.39635 260.5 6.02909 258.302 6.02909 253.905C6.02909 252.468 6.40954 250.397 7.17045 247.691C8.0159 244.901 8.56544 241.224 8.81908 236.658C9.07271 232.093 9.19953 225.245 9.19953 216.114C9.19953 207.237 9.03044 200.431 8.69226 195.696C8.43862 190.877 7.93135 187.157 7.17045 184.536C6.40954 181.831 6.02909 179.759 6.02909 178.322C6.02909 173.926 8.39635 171.728 13.1309 171.728H39.1285C40.904 171.728 42.3413 172.362 43.4403 173.63C44.624 174.898 45.2158 176.504 45.2158 178.449C45.2158 179.294 45.0044 180.351 44.5817 181.619C44.2435 182.887 43.9899 183.902 43.8208 184.663C43.229 187.115 42.8063 189.271 42.5526 191.131C42.299 192.991 42.1722 195.316 42.1722 198.106C42.1722 201.826 43.9476 203.686 47.4985 203.686C51.0494 203.686 52.8249 201.826 52.8249 198.106C52.8249 195.316 52.6981 192.991 52.4444 191.131C52.1908 189.271 51.7681 187.115 51.1762 184.663C51.0071 183.902 50.7112 182.887 50.2885 181.619C49.9503 180.351 49.7812 179.294 49.7812 178.449C49.7812 176.504 50.3308 174.898 51.4299 173.63C52.6135 172.362 54.093 171.728 55.8685 171.728H81.8662C86.6007 171.728 88.968 173.926 88.968 178.322C88.968 179.759 88.5875 181.831 87.8266 184.536C87.0657 187.157 86.5161 190.877 86.178 195.696C85.9243 200.431 85.7975 207.237 85.7975 216.114C85.7975 225.245 85.9243 232.093 86.178 236.658C86.4316 241.224 86.9811 244.901 87.8266 247.691C88.5875 250.397 88.968 252.468 88.968 253.905C88.968 258.302 86.6007 260.5 81.8662 260.5H55.8685C54.093 260.5 52.6135 259.866 51.4299 258.598C50.3308 257.33 49.7812 255.723 49.7812 253.779C49.7812 252.764 49.9926 251.623 50.4153 250.355L51.1762 247.691C52.2753 242.957 52.8249 237.123 52.8249 230.191C52.8249 228.331 52.3599 226.851 51.4299 225.752C50.4999 224.568 49.1894 223.976 47.4985 223.976C45.8076 223.976 44.4972 224.568 43.5672 225.752C42.6372 226.851 42.1722 228.331 42.1722 230.191C42.1722 236.87 42.7217 242.703 43.8208 247.691L44.5817 250.355C45.0044 251.623 45.2158 252.764 45.2158 253.779C45.2158 255.723 44.624 257.33 43.4403 258.598C42.3413 259.866 40.904 260.5 39.1285 260.5H13.1309ZM131.775 262.275C124.927 262.275 118.586 260.838 112.752 257.964C106.919 255.089 102.269 250.904 98.8023 245.409C95.3359 239.913 93.6027 233.319 93.6027 225.625C93.6027 218.354 94.3636 208.632 95.8855 196.457C96.0546 194.766 96.1391 193.498 96.1391 192.652C96.1391 189.693 95.6741 187.072 94.7441 184.79C93.8987 182.676 93.4759 180.605 93.4759 178.576C93.4759 176.631 94.11 175.025 95.3782 173.757C96.6464 172.404 98.3373 171.728 100.451 171.728H126.068C128.351 171.728 130.084 172.362 131.268 173.63C132.536 174.898 133.17 176.673 133.17 178.956C133.17 180.309 132.874 182.549 132.282 185.677C131.521 189.651 131.014 193.117 130.76 196.077C129.661 207.744 129.112 215.86 129.112 220.426C129.112 227.358 131.394 230.825 135.96 230.825C137.989 230.825 139.553 230.021 140.652 228.415C141.836 226.724 142.428 224.272 142.428 221.06C142.428 214.127 141.963 205.926 141.033 196.457C140.694 193.244 139.976 189.44 138.877 185.043C138.031 182.253 137.609 180.013 137.609 178.322C137.609 176.378 138.243 174.813 139.511 173.63C140.779 172.362 142.639 171.728 145.091 171.728H159.421C161.788 171.728 163.606 172.319 164.874 173.503C166.227 174.687 166.903 176.335 166.903 178.449C166.903 179.632 166.65 181.408 166.143 183.775C165.551 186.734 165.255 189.144 165.255 191.004C165.255 192.864 165.339 194.343 165.508 195.442C166.354 202.206 166.988 208.251 167.411 213.577C167.833 218.819 168.045 224.315 168.045 230.064C168.045 237.081 166.481 242.999 163.353 247.818C160.224 252.637 155.913 256.273 150.417 258.725C145.006 261.092 138.792 262.275 131.775 262.275ZM235.123 261.134C231.994 261.134 229.289 260.5 227.006 259.232C224.723 257.879 222.568 255.892 220.538 253.271C216.058 247.522 210.309 239.152 203.291 228.161C202.699 227.316 202.065 226.893 201.389 226.893C200.966 226.893 200.628 227.105 200.374 227.527C200.121 227.866 199.994 228.331 199.994 228.922C199.994 232.642 200.332 235.897 201.009 238.687C201.769 241.477 202.784 244.267 204.052 247.057C205.236 249.847 205.828 251.876 205.828 253.145C205.828 255.343 205.194 257.118 203.925 258.471C202.657 259.824 200.882 260.5 198.599 260.5H179.703C174.969 260.5 172.601 258.302 172.601 253.905C172.601 252.468 172.982 250.397 173.743 247.691C174.588 244.901 175.138 241.224 175.391 236.658C175.645 232.093 175.772 225.245 175.772 216.114C175.772 207.237 175.603 200.431 175.265 195.696C175.011 190.877 174.504 187.157 173.743 184.536C172.982 181.831 172.601 179.759 172.601 178.322C172.601 176.293 173.235 174.687 174.504 173.503C175.856 172.319 177.801 171.728 180.337 171.728H190.863C194.329 171.728 196.95 172.277 198.726 173.376C200.586 174.475 202.615 176.378 204.813 179.083C210.139 185.847 215.381 192.991 220.538 200.515C220.961 201.276 221.595 201.657 222.441 201.657C222.948 201.657 223.371 201.487 223.709 201.149C224.047 200.727 224.216 200.219 224.216 199.627C224.216 194.977 223.751 191.384 222.821 188.848C222.398 187.58 221.891 186.481 221.299 185.551C220.708 184.621 220.327 184.071 220.158 183.902C219.397 182.718 218.848 181.746 218.509 180.985C218.171 180.224 218.002 179.379 218.002 178.449C218.002 176.504 218.594 174.898 219.778 173.63C221.046 172.362 222.948 171.728 225.484 171.728H243.873C246.409 171.728 248.312 172.362 249.58 173.63C250.932 174.813 251.609 176.42 251.609 178.449C251.609 179.717 251.144 181.746 250.214 184.536C249.707 186.142 249.326 188.087 249.072 190.37C248.903 192.568 248.734 195.612 248.565 199.501C248.227 210.153 248.058 218.312 248.058 223.976C248.058 229.472 248.227 237.631 248.565 248.452C248.734 252.426 247.804 255.554 245.775 257.837C243.746 260.035 240.66 261.134 236.518 261.134H235.123ZM299.369 262.275C290.576 262.275 282.756 260.458 275.907 256.822C269.059 253.187 263.733 247.903 259.928 240.97C256.124 234.037 254.221 225.836 254.221 216.367C254.221 207.49 255.997 199.543 259.548 192.526C263.183 185.424 268.341 179.886 275.02 175.912C281.783 171.939 289.646 169.952 298.608 169.952C301.736 169.952 304.272 170.206 306.217 170.713C308.161 171.136 310.19 171.939 312.304 173.123C313.319 173.714 314.164 174.01 314.84 174.01C315.77 174.01 316.531 173.63 317.123 172.869C318.899 170.924 320.97 169.952 323.337 169.952C325.789 169.952 327.776 170.628 329.298 171.981C330.904 173.334 331.707 175.194 331.707 177.561C331.707 182.465 332.045 186.777 332.722 190.497C333.314 193.456 333.609 195.865 333.609 197.725C333.609 200.769 332.341 203.347 329.805 205.461C327.353 207.575 324.394 208.632 320.928 208.632C318.645 208.632 316.489 208.124 314.46 207.11C312.431 206.095 310.74 204.573 309.387 202.544C306.175 197.641 302.497 195.189 298.354 195.189C295.141 195.189 292.436 196.499 290.238 199.12C288.124 201.657 287.067 205.123 287.067 209.519C287.067 214.338 287.87 218.692 289.477 222.581C291.168 226.386 293.155 229.387 295.437 231.586C297.805 233.699 299.918 234.756 301.778 234.756C303.723 234.756 304.695 234.08 304.695 232.727C304.695 231.881 304.272 231.121 303.427 230.444C302.581 229.768 301.229 228.88 299.369 227.781C297.762 226.851 296.536 225.667 295.691 224.23C294.93 222.793 294.55 221.271 294.55 219.665C294.55 217.466 295.268 215.606 296.705 214.085C298.143 212.478 300.087 211.675 302.539 211.675H328.917C330.862 211.675 332.341 212.14 333.356 213.07C334.37 213.916 334.878 215.184 334.878 216.875C334.878 217.889 334.666 219.115 334.244 220.552C333.483 223.596 333.102 227.02 333.102 230.825C333.102 233.276 333.229 235.263 333.483 236.785C333.821 238.222 334.032 239.068 334.117 239.321C334.539 240.843 334.751 242.069 334.751 242.999C334.751 245.366 333.863 247.734 332.088 250.101C329.551 253.483 325.282 256.357 319.279 258.725C313.276 261.092 306.64 262.275 299.369 262.275ZM346.152 260.5C341.417 260.5 339.05 258.302 339.05 253.905C339.05 252.468 339.43 250.397 340.191 247.691C341.037 244.901 341.586 241.224 341.84 236.658C342.093 232.093 342.22 225.245 342.22 216.114C342.22 207.237 342.051 200.431 341.713 195.696C341.459 190.877 340.952 187.157 340.191 184.536C339.43 181.831 339.05 179.759 339.05 178.322C339.05 173.926 341.417 171.728 346.152 171.728H382.675C392.313 171.728 400.091 173.926 406.01 178.322C412.012 182.634 415.014 189.144 415.014 197.852C415.014 202.925 413.999 207.067 411.97 210.28C409.941 213.408 407.32 215.733 404.107 217.255C403.177 217.678 402.712 218.143 402.712 218.65C402.712 219.242 403.177 219.791 404.107 220.299C407.574 222.074 410.237 224.611 412.097 227.908C414.041 231.121 415.775 235.432 417.296 240.843C417.635 242.111 418.226 243.887 419.072 246.17C419.664 247.522 420.044 248.621 420.213 249.467C420.467 250.228 420.594 251.2 420.594 252.384C420.594 257.795 417.423 260.5 411.082 260.5H392.186C385.761 260.5 382.548 257.583 382.548 251.75C382.548 249.551 382.591 247.776 382.675 246.423L382.802 234.883C382.802 232.769 382.379 231.163 381.534 230.064C380.773 228.965 379.716 228.415 378.363 228.415C376.926 228.415 375.869 228.88 375.193 229.81C374.516 230.74 374.178 232.008 374.178 233.615C374.178 235.559 374.39 237.673 374.812 239.956C375.235 242.154 375.785 244.14 376.461 245.916C376.715 246.508 377.137 247.607 377.729 249.213C378.406 250.82 378.744 252.257 378.744 253.525C378.744 258.175 376.123 260.5 370.881 260.5H346.152ZM377.095 208.505C378.871 208.505 380.435 207.871 381.787 206.602C383.14 205.25 383.816 203.263 383.816 200.642C383.816 198.021 383.14 196.077 381.787 194.808C380.519 193.54 378.955 192.906 377.095 192.906C375.996 192.906 375.235 193.117 374.812 193.54C374.39 193.963 374.178 194.724 374.178 195.823V205.588C374.178 207.532 375.151 208.505 377.095 208.505ZM444.84 260.5C442.895 260.5 441.331 259.908 440.147 258.725C439.048 257.541 438.499 256.019 438.499 254.159C438.499 252.975 438.837 251.454 439.513 249.594C441.12 245.535 441.923 240.928 441.923 235.771V233.995C441.923 232.051 441.754 230.36 441.415 228.922C441.077 227.485 440.401 225.836 439.386 223.976C435.328 216.198 429.791 206.264 422.773 194.174C422.097 192.822 420.998 191.131 419.476 189.102C418.039 186.988 417.066 185.339 416.559 184.156C416.052 182.972 415.798 181.45 415.798 179.59C415.798 177.561 416.517 175.743 417.954 174.137C419.476 172.531 421.674 171.728 424.549 171.728H456C458.367 171.728 460.185 172.488 461.453 174.01C462.805 175.448 463.482 177.138 463.482 179.083C463.482 181.45 462.89 183.648 461.706 185.677C461.368 186.354 461.072 187.072 460.819 187.833C460.565 188.594 460.438 189.397 460.438 190.243C460.438 191.427 460.565 192.483 460.819 193.413C461.072 194.259 461.537 195.358 462.214 196.711C462.721 197.81 463.186 198.613 463.609 199.12C464.031 199.627 464.539 199.881 465.13 199.881C465.638 199.881 466.06 199.67 466.399 199.247C466.821 198.824 467.371 197.979 468.047 196.711C469.315 194.259 469.95 192.103 469.95 190.243C469.95 188.637 469.569 186.777 468.808 184.663C468.132 182.465 467.794 180.689 467.794 179.337C467.794 176.969 468.512 175.109 469.95 173.757C471.387 172.404 473.247 171.728 475.529 171.728H493.664C495.778 171.728 497.511 172.404 498.864 173.757C500.217 175.109 500.893 176.885 500.893 179.083C500.893 180.774 500.597 182.169 500.005 183.268C499.498 184.367 498.526 185.931 497.089 187.96C495.482 190.074 494.087 192.103 492.904 194.047C491.213 196.837 488.676 201.361 485.294 207.617L483.012 211.929C480.053 217.34 477.981 221.482 476.798 224.357C475.699 227.231 475.149 230.444 475.149 233.995V235.771C475.149 240.505 475.952 245.113 477.559 249.594C478.235 251.454 478.573 252.975 478.573 254.159C478.573 256.019 477.981 257.541 476.798 258.725C475.699 259.908 474.177 260.5 472.232 260.5H444.84Z" fill="#2B0200"/>
<path d="M53.7135 420.437C44.2017 420.437 35.5292 418.619 27.696 414.982C20.0027 411.205 13.848 405.54 9.232 397.987C4.75588 390.433 2.51782 381.132 2.51782 370.081C2.51782 363.227 3.91661 357.352 6.71418 352.456C9.65164 347.561 13.3584 343.924 17.8345 341.546C22.4506 339.028 27.2064 337.769 32.1022 337.769C39.0961 337.769 44.971 339.867 49.7269 344.064C54.4828 348.26 56.8607 353.925 56.8607 361.059C56.8607 365.395 56.2313 369.032 54.9724 371.969C53.8533 374.767 52.3147 377.495 50.3564 380.152C49.0975 381.831 48.1883 383.23 47.6287 384.349C47.2091 385.328 46.9993 386.447 46.9993 387.706C46.9993 389.524 47.6287 391.063 48.8876 392.322C50.2864 393.581 51.895 394.21 53.7135 394.21C59.8681 394.21 63.1553 388.056 63.5749 375.746C63.8547 368.472 63.9946 357.982 63.9946 344.273C63.9946 331.824 63.8547 322.522 63.5749 316.368C63.435 311.192 62.5958 306.786 61.0571 303.149C59.5184 299.512 57.4203 296.085 54.7626 292.868C52.9441 290.63 51.6852 288.672 50.9858 286.993C50.4263 285.315 50.1466 283.566 50.1466 281.748C50.1466 278.391 51.1956 275.733 53.2938 273.775C55.392 271.676 58.4693 270.627 62.5258 270.627H111.833C115.61 270.627 118.477 271.676 120.436 273.775C122.534 275.873 123.583 278.53 123.583 281.748C123.583 284.405 122.744 288.462 121.065 293.917C119.247 300.072 118.337 312.031 118.337 329.796C118.337 337.629 118.547 346.931 118.967 357.702C119.806 379.103 114.211 394.91 102.181 405.121C90.1519 415.332 73.9959 420.437 53.7135 420.437ZM194.659 420.437C182.07 420.437 170.74 417.43 160.668 411.415C150.597 405.4 142.694 396.658 136.959 385.188C131.224 373.578 128.356 359.87 128.356 344.064C128.356 328.257 131.224 314.619 136.959 303.149C142.694 291.539 150.597 282.727 160.668 276.712C170.74 270.697 182.07 267.69 194.659 267.69C207.388 267.69 218.718 270.697 228.649 276.712C238.721 282.727 246.624 291.539 252.359 303.149C258.094 314.619 260.961 328.257 260.961 344.064C260.961 359.87 258.094 373.578 252.359 385.188C246.624 396.658 238.721 405.4 228.649 411.415C218.718 417.43 207.388 420.437 194.659 420.437ZM194.659 381.411C196.617 381.411 198.086 380.572 199.065 378.893C200.184 377.075 200.953 373.508 201.373 368.193C201.933 362.877 202.212 354.834 202.212 344.064C202.212 333.153 201.933 325.11 201.373 319.935C200.953 314.619 200.184 311.122 199.065 309.444C198.086 307.625 196.617 306.716 194.659 306.716C192.701 306.716 191.162 307.625 190.043 309.444C189.064 311.122 188.294 314.619 187.735 319.935C187.315 325.11 187.105 333.153 187.105 344.064C187.105 354.834 187.315 362.877 187.735 368.193C188.294 373.508 189.064 377.075 190.043 378.893C191.162 380.572 192.701 381.411 194.659 381.411ZM275.74 417.5C267.907 417.5 263.991 413.863 263.991 406.589C263.991 404.212 264.62 400.784 265.879 396.308C267.278 391.692 268.187 385.608 268.607 378.054C269.026 370.501 269.236 359.171 269.236 344.064C269.236 329.376 268.956 318.116 268.397 310.283C267.977 302.31 267.138 296.155 265.879 291.819C264.62 287.343 263.991 283.916 263.991 281.538C263.991 274.264 267.907 270.627 275.74 270.627H347.498C354.352 270.627 359.318 271.886 362.395 274.404C365.613 276.782 367.221 280.349 367.221 285.105C367.221 290.42 367.921 295.526 369.319 300.421C369.739 302.1 369.949 303.639 369.949 305.037C369.949 308.954 368.62 312.241 365.962 314.899C363.445 317.417 360.017 318.676 355.681 318.676C352.744 318.676 350.296 318.256 348.338 317.417C346.379 316.438 344.071 314.969 341.414 313.011C339.455 311.472 337.637 310.283 335.958 309.444C334.42 308.604 332.531 308.185 330.293 308.185C328.055 308.185 326.167 308.954 324.628 310.493C323.089 311.891 322.32 314.06 322.32 316.997C322.32 319.795 323.159 321.963 324.838 323.501C326.656 324.9 328.894 325.6 331.552 325.6C333.79 325.6 336.028 325.18 338.266 324.341C340.504 323.362 342.882 322.872 345.4 322.872C349.876 322.872 353.303 324.62 355.681 328.117C358.059 331.475 359.248 336.16 359.248 342.175C359.248 348.33 357.989 353.366 355.471 357.282C353.093 361.199 349.736 363.157 345.4 363.157C343.302 363.157 341.623 362.807 340.365 362.108C339.245 361.409 338.546 360.989 338.266 360.849C336.168 359.31 333.93 358.541 331.552 358.541C329.034 358.541 326.866 359.31 325.048 360.849C323.229 362.248 322.32 364.276 322.32 366.934C322.32 370.151 323.299 372.599 325.258 374.277C327.356 375.956 330.153 376.795 333.65 376.795C337.427 376.795 340.434 376.236 342.673 375.117C344.911 373.858 347.149 372.109 349.387 369.871C351.625 367.773 353.653 366.234 355.471 365.255C357.29 364.136 359.738 363.577 362.815 363.577C367.291 363.577 370.718 364.836 373.096 367.353C375.474 369.731 376.663 373.019 376.663 377.215C376.663 379.313 376.523 380.922 376.243 382.041C375.124 387.916 374.565 393.651 374.565 399.246C374.565 405.261 372.607 409.807 368.69 412.884C364.913 415.961 359.388 417.5 352.114 417.5H275.74ZM434.883 420.437C426.49 420.437 419.636 420.088 414.32 419.388C409.005 418.829 403.76 417.64 398.584 415.821C393.688 414.143 390.191 412.045 388.093 409.527C386.135 406.869 384.946 404.212 384.526 401.554C384.247 398.896 384.107 394.7 384.107 388.965C384.107 383.09 383.757 378.614 383.058 375.536C382.918 374.837 382.848 373.928 382.848 372.809C382.848 368.892 384.247 365.675 387.044 363.157C389.842 360.499 393.129 359.171 396.906 359.171C401.801 359.171 405.928 361.409 409.285 365.885C415.859 374.837 423.413 379.313 431.945 379.313C436.561 379.313 438.869 377.565 438.869 374.068C438.869 371.969 437.75 370.151 435.512 368.612C433.274 366.934 428.308 364.766 420.615 362.108C409.984 358.331 401.172 352.736 394.178 345.323C387.324 337.769 383.897 327.068 383.897 313.22C383.897 298.533 389.072 287.273 399.423 279.44C409.914 271.606 423.343 267.69 439.708 267.69C453.137 267.69 463.488 268.739 470.762 270.837C478.175 272.935 482.302 277.062 483.141 283.216C484.12 290.49 485.659 297.834 487.757 305.247C488.316 307.066 488.596 308.954 488.596 310.912C488.596 314.969 487.267 318.186 484.61 320.564C482.092 322.802 478.875 323.921 474.958 323.921C469.503 323.921 464.747 321.823 460.69 317.627C456.494 313.29 453.137 310.423 450.619 309.024C448.101 307.485 445.653 306.716 443.275 306.716C441.317 306.716 439.778 307.136 438.659 307.975C437.54 308.814 436.981 309.933 436.981 311.332C436.981 313.15 438.03 314.829 440.128 316.368C442.366 317.766 446.772 319.515 453.347 321.613C468.174 326.509 478.805 332.594 485.239 339.867C491.673 347.141 494.891 357.492 494.891 370.92C494.891 386.027 489.785 398.057 479.574 407.009C469.363 415.961 454.466 420.437 434.883 420.437Z" fill="#2B0200"/>
</svg>
