<svg width="719" height="605" viewBox="0 0 719 605" fill="none" xmlns="http://www.w3.org/2000/svg">
<path d="M61.2663 253.175C42.0209 119.608 145.63 0 280.577 0H437.618C573.305 0 677.771 119.785 659.32 254.211V254.211C655.851 279.486 656.746 305.251 661.934 330.23V330.23C691.31 471.675 583.444 605 438.981 605H279.286C135.534 605 28.5107 471.818 58.6024 331.25V331.25C64.0898 305.617 65.0048 279.121 61.2663 253.175V253.175Z" fill="#1B0100"/>
<path d="M556.18 526.32C515.284 549.402 455.121 556 358.07 556C261.02 556 200.86 549.402 159.97 526.32C135.417 512.496 117.99 493.644 117.99 480.13C117.99 472.44 117.086 468.04 126.199 468.04H589.932C599.052 468.04 598.15 472.438 598.15 480.13C598.156 493.644 580.72 512.494 556.18 526.32ZM589.934 188.196C589.934 188.196 135.32 188.196 126.2 188.196C117.08 188.196 112.994 183.486 112.994 175.008C112.994 124.74 188.654 36 358.07 36C525.921 36 603.152 124.74 603.152 175.008C603.152 183.486 599.06 188.196 589.934 188.196Z" fill="#FF8D36"/>
<path d="M122.131 296.5C117.396 296.5 115.029 294.302 115.029 289.905C115.029 288.468 115.41 286.397 116.17 283.691C117.016 280.901 117.565 277.224 117.819 272.658C118.073 268.093 118.2 261.245 118.2 252.114C118.2 243.237 118.03 236.431 117.692 231.696C117.439 226.877 116.931 223.157 116.17 220.536C115.41 217.831 115.029 215.759 115.029 214.322C115.029 209.926 117.396 207.728 122.131 207.728H148.129C149.904 207.728 151.341 208.362 152.44 209.63C153.624 210.898 154.216 212.504 154.216 214.449C154.216 215.294 154.004 216.351 153.582 217.619C153.244 218.887 152.99 219.902 152.821 220.663C152.229 223.115 151.806 225.271 151.553 227.131C151.299 228.991 151.172 231.316 151.172 234.106C151.172 237.826 152.948 239.686 156.499 239.686C160.049 239.686 161.825 237.826 161.825 234.106C161.825 231.316 161.698 228.991 161.444 227.131C161.191 225.271 160.768 223.115 160.176 220.663C160.007 219.902 159.711 218.887 159.289 217.619C158.95 216.351 158.781 215.294 158.781 214.449C158.781 212.504 159.331 210.898 160.43 209.63C161.614 208.362 163.093 207.728 164.868 207.728H190.866C195.601 207.728 197.968 209.926 197.968 214.322C197.968 215.759 197.587 217.831 196.827 220.536C196.066 223.157 195.516 226.877 195.178 231.696C194.924 236.431 194.798 243.237 194.798 252.114C194.798 261.245 194.924 268.093 195.178 272.658C195.432 277.224 195.981 280.901 196.827 283.691C197.587 286.397 197.968 288.468 197.968 289.905C197.968 294.302 195.601 296.5 190.866 296.5H164.868C163.093 296.5 161.614 295.866 160.43 294.598C159.331 293.33 158.781 291.723 158.781 289.779C158.781 288.764 158.993 287.623 159.415 286.355L160.176 283.691C161.275 278.957 161.825 273.123 161.825 266.191C161.825 264.331 161.36 262.851 160.43 261.752C159.5 260.568 158.189 259.976 156.499 259.976C154.808 259.976 153.497 260.568 152.567 261.752C151.637 262.851 151.172 264.331 151.172 266.191C151.172 272.87 151.722 278.703 152.821 283.691L153.582 286.355C154.004 287.623 154.216 288.764 154.216 289.779C154.216 291.723 153.624 293.33 152.44 294.598C151.341 295.866 149.904 296.5 148.129 296.5H122.131ZM240.775 298.275C233.927 298.275 227.586 296.838 221.752 293.964C215.919 291.089 211.269 286.904 207.802 281.409C204.336 275.913 202.603 269.319 202.603 261.625C202.603 254.354 203.364 244.632 204.885 232.457C205.055 230.766 205.139 229.498 205.139 228.652C205.139 225.693 204.674 223.072 203.744 220.79C202.899 218.676 202.476 216.605 202.476 214.576C202.476 212.631 203.11 211.025 204.378 209.757C205.646 208.404 207.337 207.728 209.451 207.728H235.068C237.351 207.728 239.084 208.362 240.268 209.63C241.536 210.898 242.17 212.673 242.17 214.956C242.17 216.309 241.874 218.549 241.282 221.677C240.521 225.651 240.014 229.117 239.76 232.077C238.661 243.744 238.112 251.86 238.112 256.426C238.112 263.358 240.394 266.825 244.96 266.825C246.989 266.825 248.553 266.021 249.652 264.415C250.836 262.724 251.428 260.272 251.428 257.06C251.428 250.127 250.963 241.926 250.033 232.457C249.694 229.244 248.976 225.44 247.877 221.043C247.031 218.253 246.609 216.013 246.609 214.322C246.609 212.378 247.243 210.813 248.511 209.63C249.779 208.362 251.639 207.728 254.091 207.728H268.421C270.788 207.728 272.606 208.319 273.874 209.503C275.227 210.687 275.903 212.335 275.903 214.449C275.903 215.632 275.65 217.408 275.143 219.775C274.551 222.734 274.255 225.144 274.255 227.004C274.255 228.864 274.339 230.343 274.508 231.442C275.354 238.206 275.988 244.251 276.411 249.577C276.833 254.819 277.045 260.315 277.045 266.064C277.045 273.081 275.481 278.999 272.353 283.818C269.224 288.637 264.913 292.273 259.417 294.725C254.006 297.092 247.792 298.275 240.775 298.275ZM344.123 297.134C340.994 297.134 338.289 296.5 336.006 295.232C333.723 293.879 331.568 291.892 329.538 289.271C325.058 283.522 319.309 275.152 312.291 264.161C311.699 263.316 311.065 262.893 310.389 262.893C309.966 262.893 309.628 263.105 309.374 263.527C309.121 263.866 308.994 264.331 308.994 264.922C308.994 268.642 309.332 271.897 310.009 274.687C310.769 277.477 311.784 280.267 313.052 283.057C314.236 285.847 314.828 287.876 314.828 289.145C314.828 291.343 314.194 293.118 312.925 294.471C311.657 295.824 309.882 296.5 307.599 296.5H288.703C283.969 296.5 281.601 294.302 281.601 289.905C281.601 288.468 281.982 286.397 282.743 283.691C283.588 280.901 284.138 277.224 284.391 272.658C284.645 268.093 284.772 261.245 284.772 252.114C284.772 243.237 284.603 236.431 284.265 231.696C284.011 226.877 283.504 223.157 282.743 220.536C281.982 217.831 281.601 215.759 281.601 214.322C281.601 212.293 282.235 210.687 283.504 209.503C284.856 208.319 286.801 207.728 289.337 207.728H299.863C303.329 207.728 305.95 208.277 307.726 209.376C309.586 210.475 311.615 212.378 313.813 215.083C319.139 221.847 324.381 228.991 329.538 236.515C329.961 237.276 330.595 237.657 331.441 237.657C331.948 237.657 332.371 237.487 332.709 237.149C333.047 236.727 333.216 236.219 333.216 235.627C333.216 230.977 332.751 227.384 331.821 224.848C331.398 223.58 330.891 222.481 330.299 221.551C329.708 220.621 329.327 220.071 329.158 219.902C328.397 218.718 327.848 217.746 327.509 216.985C327.171 216.224 327.002 215.379 327.002 214.449C327.002 212.504 327.594 210.898 328.778 209.63C330.046 208.362 331.948 207.728 334.484 207.728H352.873C355.409 207.728 357.312 208.362 358.58 209.63C359.932 210.813 360.609 212.42 360.609 214.449C360.609 215.717 360.144 217.746 359.214 220.536C358.707 222.142 358.326 224.087 358.072 226.37C357.903 228.568 357.734 231.612 357.565 235.501C357.227 246.153 357.058 254.312 357.058 259.976C357.058 265.472 357.227 273.631 357.565 284.452C357.734 288.426 356.804 291.554 354.775 293.837C352.746 296.035 349.66 297.134 345.518 297.134H344.123ZM408.369 298.275C399.576 298.275 391.756 296.458 384.907 292.822C378.059 289.187 372.733 283.903 368.928 276.97C365.124 270.037 363.221 261.836 363.221 252.367C363.221 243.49 364.997 235.543 368.548 228.526C372.183 221.424 377.341 215.886 384.02 211.912C390.783 207.939 398.646 205.952 407.608 205.952C410.736 205.952 413.272 206.206 415.217 206.713C417.161 207.136 419.19 207.939 421.304 209.123C422.319 209.714 423.164 210.01 423.84 210.01C424.77 210.01 425.531 209.63 426.123 208.869C427.899 206.924 429.97 205.952 432.337 205.952C434.789 205.952 436.776 206.628 438.298 207.981C439.904 209.334 440.707 211.194 440.707 213.561C440.707 218.465 441.045 222.777 441.722 226.497C442.314 229.456 442.609 231.865 442.609 233.725C442.609 236.769 441.341 239.347 438.805 241.461C436.353 243.575 433.394 244.632 429.928 244.632C427.645 244.632 425.489 244.124 423.46 243.11C421.431 242.095 419.74 240.573 418.387 238.544C415.175 233.641 411.497 231.189 407.354 231.189C404.141 231.189 401.436 232.499 399.238 235.12C397.124 237.657 396.067 241.123 396.067 245.519C396.067 250.338 396.87 254.692 398.477 258.581C400.168 262.386 402.155 265.387 404.437 267.586C406.805 269.699 408.918 270.756 410.778 270.756C412.723 270.756 413.695 270.08 413.695 268.727C413.695 267.881 413.272 267.121 412.427 266.444C411.581 265.768 410.229 264.88 408.369 263.781C406.762 262.851 405.536 261.667 404.691 260.23C403.93 258.793 403.55 257.271 403.55 255.665C403.55 253.466 404.268 251.606 405.705 250.085C407.143 248.478 409.087 247.675 411.539 247.675H437.917C439.862 247.675 441.341 248.14 442.356 249.07C443.37 249.916 443.878 251.184 443.878 252.875C443.878 253.889 443.666 255.115 443.244 256.552C442.483 259.596 442.102 263.02 442.102 266.825C442.102 269.276 442.229 271.263 442.483 272.785C442.821 274.222 443.032 275.068 443.117 275.321C443.539 276.843 443.751 278.069 443.751 278.999C443.751 281.366 442.863 283.734 441.088 286.101C438.551 289.483 434.282 292.357 428.279 294.725C422.276 297.092 415.64 298.275 408.369 298.275ZM455.152 296.5C450.417 296.5 448.05 294.302 448.05 289.905C448.05 288.468 448.43 286.397 449.191 283.691C450.037 280.901 450.586 277.224 450.84 272.658C451.093 268.093 451.22 261.245 451.22 252.114C451.22 243.237 451.051 236.431 450.713 231.696C450.459 226.877 449.952 223.157 449.191 220.536C448.43 217.831 448.05 215.759 448.05 214.322C448.05 209.926 450.417 207.728 455.152 207.728H491.675C501.313 207.728 509.091 209.926 515.01 214.322C521.012 218.634 524.014 225.144 524.014 233.852C524.014 238.925 522.999 243.067 520.97 246.28C518.941 249.408 516.32 251.733 513.107 253.255C512.177 253.678 511.712 254.143 511.712 254.65C511.712 255.242 512.177 255.791 513.107 256.299C516.574 258.074 519.237 260.611 521.097 263.908C523.041 267.121 524.775 271.432 526.296 276.843C526.635 278.111 527.226 279.887 528.072 282.17C528.664 283.522 529.044 284.621 529.213 285.467C529.467 286.228 529.594 287.2 529.594 288.384C529.594 293.795 526.423 296.5 520.082 296.5H501.186C494.761 296.5 491.548 293.583 491.548 287.75C491.548 285.551 491.591 283.776 491.675 282.423L491.802 270.883C491.802 268.769 491.379 267.163 490.534 266.064C489.773 264.965 488.716 264.415 487.363 264.415C485.926 264.415 484.869 264.88 484.193 265.81C483.516 266.74 483.178 268.008 483.178 269.615C483.178 271.559 483.39 273.673 483.812 275.956C484.235 278.154 484.785 280.14 485.461 281.916C485.715 282.508 486.137 283.607 486.729 285.213C487.406 286.82 487.744 288.257 487.744 289.525C487.744 294.175 485.123 296.5 479.881 296.5H455.152ZM486.095 244.505C487.871 244.505 489.435 243.871 490.787 242.602C492.14 241.25 492.816 239.263 492.816 236.642C492.816 234.021 492.14 232.077 490.787 230.808C489.519 229.54 487.955 228.906 486.095 228.906C484.996 228.906 484.235 229.117 483.812 229.54C483.39 229.963 483.178 230.724 483.178 231.823V241.588C483.178 243.532 484.151 244.505 486.095 244.505ZM553.84 296.5C551.895 296.5 550.331 295.908 549.147 294.725C548.048 293.541 547.499 292.019 547.499 290.159C547.499 288.975 547.837 287.454 548.513 285.594C550.12 281.535 550.923 276.928 550.923 271.771V269.995C550.923 268.051 550.754 266.36 550.415 264.922C550.077 263.485 549.401 261.836 548.386 259.976C544.328 252.198 538.791 242.264 531.773 230.174C531.097 228.822 529.998 227.131 528.476 225.102C527.039 222.988 526.066 221.339 525.559 220.156C525.052 218.972 524.798 217.45 524.798 215.59C524.798 213.561 525.517 211.743 526.954 210.137C528.476 208.531 530.674 207.728 533.549 207.728H565C567.367 207.728 569.185 208.488 570.453 210.01C571.805 211.448 572.482 213.138 572.482 215.083C572.482 217.45 571.89 219.648 570.706 221.677C570.368 222.354 570.072 223.072 569.819 223.833C569.565 224.594 569.438 225.397 569.438 226.243C569.438 227.427 569.565 228.483 569.819 229.413C570.072 230.259 570.537 231.358 571.214 232.711C571.721 233.81 572.186 234.613 572.609 235.12C573.031 235.627 573.539 235.881 574.13 235.881C574.638 235.881 575.06 235.67 575.399 235.247C575.821 234.824 576.371 233.979 577.047 232.711C578.315 230.259 578.95 228.103 578.95 226.243C578.95 224.637 578.569 222.777 577.808 220.663C577.132 218.465 576.794 216.689 576.794 215.337C576.794 212.969 577.512 211.109 578.95 209.757C580.387 208.404 582.247 207.728 584.529 207.728H602.664C604.778 207.728 606.511 208.404 607.864 209.757C609.217 211.109 609.893 212.885 609.893 215.083C609.893 216.774 609.597 218.169 609.005 219.268C608.498 220.367 607.526 221.931 606.089 223.96C604.482 226.074 603.087 228.103 601.904 230.047C600.213 232.837 597.676 237.361 594.294 243.617L592.012 247.929C589.053 253.34 586.981 257.482 585.798 260.357C584.699 263.231 584.149 266.444 584.149 269.995V271.771C584.149 276.505 584.952 281.113 586.559 285.594C587.235 287.454 587.573 288.975 587.573 290.159C587.573 292.019 586.981 293.541 585.798 294.725C584.699 295.908 583.177 296.5 581.232 296.5H553.84Z" fill="#FFD769"/>
<path d="M162.713 456.437C153.202 456.437 144.529 454.619 136.696 450.982C129.003 447.205 122.848 441.54 118.232 433.987C113.756 426.433 111.518 417.132 111.518 406.081C111.518 399.227 112.917 393.352 115.714 388.456C118.652 383.561 122.358 379.924 126.835 377.546C131.451 375.028 136.206 373.769 141.102 373.769C148.096 373.769 153.971 375.867 158.727 380.064C163.483 384.26 165.861 389.925 165.861 397.059C165.861 401.395 165.231 405.032 163.972 407.969C162.853 410.767 161.315 413.495 159.356 416.152C158.097 417.831 157.188 419.23 156.629 420.349C156.209 421.328 155.999 422.447 155.999 423.706C155.999 425.524 156.629 427.063 157.888 428.322C159.286 429.581 160.895 430.21 162.713 430.21C168.868 430.21 172.155 424.056 172.575 411.746C172.855 404.472 172.995 393.982 172.995 380.273C172.995 367.824 172.855 358.522 172.575 352.368C172.435 347.192 171.596 342.786 170.057 339.149C168.518 335.512 166.42 332.085 163.763 328.868C161.944 326.63 160.685 324.672 159.986 322.993C159.426 321.315 159.147 319.566 159.147 317.748C159.147 314.391 160.196 311.733 162.294 309.775C164.392 307.676 167.469 306.627 171.526 306.627H220.833C224.61 306.627 227.477 307.676 229.436 309.775C231.534 311.873 232.583 314.53 232.583 317.748C232.583 320.405 231.744 324.462 230.065 329.917C228.247 336.072 227.337 348.031 227.337 365.796C227.337 373.629 227.547 382.931 227.967 393.702C228.806 415.103 223.211 430.91 211.181 441.121C199.152 451.332 182.996 456.437 162.713 456.437ZM303.659 456.437C291.07 456.437 279.74 453.43 269.668 447.415C259.597 441.4 251.694 432.658 245.959 421.188C240.224 409.578 237.356 395.87 237.356 380.064C237.356 364.257 240.224 350.619 245.959 339.149C251.694 327.539 259.597 318.727 269.668 312.712C279.74 306.697 291.07 303.69 303.659 303.69C316.388 303.69 327.718 306.697 337.649 312.712C347.721 318.727 355.624 327.539 361.359 339.149C367.094 350.619 369.961 364.257 369.961 380.064C369.961 395.87 367.094 409.578 361.359 421.188C355.624 432.658 347.721 441.4 337.649 447.415C327.718 453.43 316.388 456.437 303.659 456.437ZM303.659 417.411C305.617 417.411 307.086 416.572 308.065 414.893C309.184 413.075 309.953 409.508 310.373 404.193C310.933 398.877 311.212 390.834 311.212 380.064C311.212 369.153 310.933 361.11 310.373 355.935C309.953 350.619 309.184 347.122 308.065 345.444C307.086 343.625 305.617 342.716 303.659 342.716C301.701 342.716 300.162 343.625 299.043 345.444C298.064 347.122 297.294 350.619 296.735 355.935C296.315 361.11 296.105 369.153 296.105 380.064C296.105 390.834 296.315 398.877 296.735 404.193C297.294 409.508 298.064 413.075 299.043 414.893C300.162 416.572 301.701 417.411 303.659 417.411ZM384.74 453.5C376.907 453.5 372.991 449.863 372.991 442.589C372.991 440.212 373.62 436.784 374.879 432.308C376.278 427.692 377.187 421.608 377.607 414.054C378.026 406.501 378.236 395.171 378.236 380.064C378.236 365.376 377.956 354.116 377.397 346.283C376.977 338.31 376.138 332.155 374.879 327.819C373.62 323.343 372.991 319.916 372.991 317.538C372.991 310.264 376.907 306.627 384.74 306.627H456.498C463.352 306.627 468.318 307.886 471.395 310.404C474.613 312.782 476.221 316.349 476.221 321.105C476.221 326.42 476.921 331.526 478.319 336.421C478.739 338.1 478.949 339.639 478.949 341.037C478.949 344.954 477.62 348.241 474.962 350.899C472.445 353.417 469.017 354.676 464.681 354.676C461.744 354.676 459.296 354.256 457.338 353.417C455.379 352.438 453.071 350.969 450.414 349.011C448.455 347.472 446.637 346.283 444.958 345.444C443.42 344.604 441.531 344.185 439.293 344.185C437.055 344.185 435.167 344.954 433.628 346.493C432.089 347.891 431.32 350.06 431.32 352.997C431.32 355.795 432.159 357.963 433.838 359.501C435.656 360.9 437.894 361.6 440.552 361.6C442.79 361.6 445.028 361.18 447.266 360.341C449.504 359.362 451.882 358.872 454.4 358.872C458.876 358.872 462.303 360.62 464.681 364.117C467.059 367.475 468.248 372.16 468.248 378.175C468.248 384.33 466.989 389.366 464.471 393.282C462.093 397.199 458.736 399.157 454.4 399.157C452.302 399.157 450.623 398.807 449.365 398.108C448.245 397.409 447.546 396.989 447.266 396.849C445.168 395.31 442.93 394.541 440.552 394.541C438.034 394.541 435.866 395.31 434.048 396.849C432.229 398.248 431.32 400.276 431.32 402.934C431.32 406.151 432.299 408.599 434.258 410.277C436.356 411.956 439.153 412.795 442.65 412.795C446.427 412.795 449.434 412.236 451.673 411.117C453.911 409.858 456.149 408.109 458.387 405.871C460.625 403.773 462.653 402.234 464.471 401.255C466.29 400.136 468.738 399.577 471.815 399.577C476.291 399.577 479.718 400.836 482.096 403.353C484.474 405.731 485.663 409.019 485.663 413.215C485.663 415.313 485.523 416.922 485.243 418.041C484.124 423.916 483.565 429.651 483.565 435.246C483.565 441.261 481.607 445.807 477.69 448.884C473.913 451.961 468.388 453.5 461.114 453.5H384.74ZM543.883 456.437C535.49 456.437 528.636 456.088 523.32 455.388C518.005 454.829 512.76 453.64 507.584 451.821C502.688 450.143 499.191 448.045 497.093 445.527C495.135 442.869 493.946 440.212 493.526 437.554C493.247 434.896 493.107 430.7 493.107 424.965C493.107 419.09 492.757 414.614 492.058 411.536C491.918 410.837 491.848 409.928 491.848 408.809C491.848 404.892 493.247 401.675 496.044 399.157C498.842 396.499 502.129 395.171 505.906 395.171C510.801 395.171 514.928 397.409 518.285 401.885C524.859 410.837 532.413 415.313 540.945 415.313C545.561 415.313 547.869 413.565 547.869 410.068C547.869 407.969 546.75 406.151 544.512 404.612C542.274 402.934 537.308 400.766 529.615 398.108C518.984 394.331 510.172 388.736 503.178 381.323C496.324 373.769 492.897 363.068 492.897 349.22C492.897 334.533 498.072 323.273 508.423 315.44C518.914 307.606 532.343 303.69 548.708 303.69C562.137 303.69 572.488 304.739 579.762 306.837C587.175 308.935 591.302 313.062 592.141 319.216C593.12 326.49 594.659 333.834 596.757 341.247C597.316 343.066 597.596 344.954 597.596 346.912C597.596 350.969 596.267 354.186 593.61 356.564C591.092 358.802 587.875 359.921 583.958 359.921C578.503 359.921 573.747 357.823 569.69 353.627C565.494 349.29 562.137 346.423 559.619 345.024C557.101 343.485 554.653 342.716 552.275 342.716C550.317 342.716 548.778 343.136 547.659 343.975C546.54 344.814 545.981 345.933 545.981 347.332C545.981 349.15 547.03 350.829 549.128 352.368C551.366 353.766 555.772 355.515 562.347 357.613C577.174 362.509 587.805 368.594 594.239 375.867C600.673 383.141 603.891 393.492 603.891 406.92C603.891 422.027 598.785 434.057 588.574 443.009C578.363 451.961 563.466 456.437 543.883 456.437Z" fill="#4BA864"/>
</svg>
